<svg xmlns="http://www.w3.org/2000/svg" viewBox="0 0 520 330"><defs><filter id="s"><feDropShadow dx="0" dy="8" stdDeviation="7" flood-opacity=".28"/></filter></defs><g filter="url(#s)"><path d="M90 180 C160 115 285 120 380 165 L455 135 L420 190 L455 240 L378 208 C285 260 160 250 90 205 L35 240 L58 194 L35 145 Z" fill="#9a866e"/><path d="M95 170 L30 92 L58 174 M95 210 L34 282 L61 204" fill="#9a866e" stroke="#9a866e" stroke-width="18" stroke-linejoin="round"/><path d="<path d="M210 165 L135 85 L275 153 Z" fill="#9a866e" opacity=".9"/><path d="M210 205 L140 285 L278 220 Z" fill="#9a866e" opacity=".9"/>" fill="#9a866e"/><path d="M270 238 L330 310 L315 228" fill="#9a866e"/><path d="M110 210 C185 255 315 265 388 224 C320 286 165 295 92 216 Z" fill="#dce6e6" opacity=".72"/><circle cx="365" cy="169" r="6" fill="#071d26"/><path d="M360 202 Q398 218 425 198" fill="none" stroke="#20343b" stroke-width="5" stroke-linecap="round"/><path d="M340 177 l-10 35m20-34l-8 38m19-35l-5 36" stroke="#425860" stroke-width="4" opacity=".7"/></g></svg>