<svg xmlns="http://www.w3.org/2000/svg" viewBox="0 0 520 330"><defs><filter id="s"><feDropShadow dx="0" dy="8" stdDeviation="7" flood-opacity=".28"/></filter></defs><g filter="url(#s)"><path d="M70 185 C150 115 260 130 350 165 C410 188 438 180 468 160 C448 205 416 230 350 225 C255 215 150 250 70 205 L25 240 L48 195 L25 150 Z" fill="#604f59"/><path d="M95 170 L30 92 L58 174 M95 210 L34 282 L61 204" fill="#604f59" stroke="#604f59" stroke-width="18" stroke-linejoin="round"/><path d="" fill="#604f59"/><path d="" fill="#604f59"/><path d="M110 210 C185 255 315 265 388 224 C320 286 165 295 92 216 Z" fill="#dce6e6" opacity=".72"/><circle cx="365" cy="169" r="6" fill="#071d26"/><path d="M360 202 Q398 218 425 198" fill="none" stroke="#20343b" stroke-width="5" stroke-linecap="round"/><path d="M340 177 l-10 35m20-34l-8 38m19-35l-5 36" stroke="#425860" stroke-width="4" opacity=".7"/></g></svg>