<svg xmlns="http://www.w3.org/2000/svg" viewBox="0 0 520 330"><defs><filter id="s"><feDropShadow dx="0" dy="8" stdDeviation="7" flood-opacity=".28"/></filter></defs><g filter="url(#s)"><path d="M100 177 C180 105 310 112 392 160 C420 176 438 188 458 197 C430 204 416 217 390 232 C305 275 180 270 100 207 L35 246 L62 193 L35 145 Z" fill="#3e78ad"/><path d="M95 170 L30 92 L58 174 M95 210 L34 282 L61 204" fill="#3e78ad" stroke="#3e78ad" stroke-width="18" stroke-linejoin="round"/><path d="M205 116 L246 42 L278 124" fill="#3e78ad"/><path d="M270 238 L330 310 L315 228" fill="#3e78ad"/><path d="M110 210 C185 255 315 265 388 224 C320 286 165 295 92 216 Z" fill="#dce6e6" opacity=".72"/><circle cx="365" cy="169" r="6" fill="#071d26"/><path d="M360 202 Q398 218 425 198" fill="none" stroke="#20343b" stroke-width="5" stroke-linecap="round"/><path d="M340 177 l-10 35m20-34l-8 38m19-35l-5 36" stroke="#425860" stroke-width="4" opacity=".7"/></g></svg>